<?xml version="1.0" encoding="UTF-8" standalone="no"?>
<!-- Generator: Adobe Illustrator 19.0.0, SVG Export Plug-In . SVG Version: 6.00 Build 0)  -->

<svg
   xmlns:dc="http://purl.org/dc/elements/1.1/"
   xmlns:cc="http://creativecommons.org/ns#"
   xmlns:rdf="http://www.w3.org/1999/02/22-rdf-syntax-ns#"
   xmlns:svg="http://www.w3.org/2000/svg"
   xmlns="http://www.w3.org/2000/svg"
   xmlns:sodipodi="http://sodipodi.sourceforge.net/DTD/sodipodi-0.dtd"
   xmlns:inkscape="http://www.inkscape.org/namespaces/inkscape"
   version="1.1"
   id="Capa_1"
   x="0px"
   y="0px"
   viewBox="0 0 1717.7521 511.99988"
   xml:space="preserve"
   sodipodi:docname="cacao_accounting _logo.svg"
   width="1717.7521"
   height="511.99988"
   inkscape:version="0.92.4 (5da689c313, 2019-01-14)"
   inkscape:export-filename="C:\repos\cacao-accounting-mockup\cacao_accounting_mockup\static\media\cacao_accounting _logo.png"
   inkscape:export-xdpi="96"
   inkscape:export-ydpi="96"><metadata
   id="metadata67"><rdf:RDF><cc:Work
       rdf:about=""><dc:format>image/svg+xml</dc:format><dc:type
         rdf:resource="http://purl.org/dc/dcmitype/StillImage" /><dc:title></dc:title></cc:Work></rdf:RDF></metadata><defs
   id="defs65" /><sodipodi:namedview
   pagecolor="#ffffff"
   bordercolor="#666666"
   borderopacity="1"
   objecttolerance="10"
   gridtolerance="10"
   guidetolerance="10"
   inkscape:pageopacity="0"
   inkscape:pageshadow="2"
   inkscape:window-width="1366"
   inkscape:window-height="745"
   id="namedview63"
   showgrid="false"
   fit-margin-top="0"
   fit-margin-left="0"
   fit-margin-right="0"
   fit-margin-bottom="0"
   inkscape:zoom="0.4609375"
   inkscape:cx="978.70443"
   inkscape:cy="251.98288"
   inkscape:window-x="-8"
   inkscape:window-y="-8"
   inkscape:window-maximized="1"
   inkscape:current-layer="Capa_1" />





<g
   id="g32"
   transform="translate(-32.369,4.0169825)">
</g>
<g
   id="g34"
   transform="translate(-32.369,4.0169825)">
</g>
<g
   id="g36"
   transform="translate(-32.369,4.0169825)">
</g>
<g
   id="g38"
   transform="translate(-32.369,4.0169825)">
</g>
<g
   id="g40"
   transform="translate(-32.369,4.0169825)">
</g>
<g
   id="g42"
   transform="translate(-32.369,4.0169825)">
</g>
<g
   id="g44"
   transform="translate(-32.369,4.0169825)">
</g>
<g
   id="g46"
   transform="translate(-32.369,4.0169825)">
</g>
<g
   id="g48"
   transform="translate(-32.369,4.0169825)">
</g>
<g
   id="g50"
   transform="translate(-32.369,4.0169825)">
</g>
<g
   id="g52"
   transform="translate(-32.369,4.0169825)">
</g>
<g
   id="g54"
   transform="translate(-32.369,4.0169825)">
</g>
<g
   id="g56"
   transform="translate(-32.369,4.0169825)">
</g>
<g
   id="g58"
   transform="translate(-32.369,4.0169825)">
</g>
<g
   id="g60"
   transform="translate(-32.369,4.0169825)">
</g>
<g
   id="g159"><g
     transform="translate(-32.369,-5.6799735e-4)"
     id="g94"><g
       id="g6">
	<g
   id="g4">
		<path
   inkscape:connector-curvature="0"
   d="m 273.237,112.923 c -4.122,-0.493 -7.856,2.446 -8.349,6.565 -0.493,4.118 2.446,7.856 6.565,8.349 102.673,12.287 151.443,137.234 79.637,215.458 -48.169,52.47 -129.842,56.029 -182.384,7.797 -26.558,-24.381 -41.789,-59.053 -41.789,-95.126 0,-66.208 50.213,-121.809 116.199,-128.402 4.127,-0.413 7.138,-4.092 6.726,-8.219 -0.413,-4.129 -4.098,-7.145 -8.219,-6.729 -73.556,7.352 -129.726,69.311 -129.726,143.348 0,78.641 63.642,144.139 144.066,144.139 40.268,0 78.974,-17.004 106.19,-46.652 79.889,-87.028 26.191,-226.752 -88.916,-240.528 z"
   id="path2" />
	</g>
</g><g
       id="g12">
	<g
   id="g10">
		<path
   inkscape:connector-curvature="0"
   d="m 324.011,169.896 c -66.848,-52.741 -164.822,-12.305 -176.662,70.61 -0.586,4.106 2.267,7.909 6.373,8.496 4.098,0.581 7.909,-2.267 8.496,-6.373 6.559,-45.926 46.33,-81.353 93.874,-81.353 53.693,0 94.631,43.457 94.631,94.818 0,53.693 -43.457,94.631 -94.818,94.631 -47.005,10e-4 -86.338,-33.849 -93.52,-80.368 -0.632,-4.098 -4.466,-6.91 -8.567,-6.276 -4.099,0.633 -6.909,4.468 -6.276,8.567 4.288,27.791 19.035,52.566 40.444,69.458 48.466,38.239 117.289,28.587 154.117,-18.093 38.24,-48.467 28.588,-117.289 -18.092,-154.117 z"
   id="path8" />
	</g>
</g><g
       id="g18">
	<g
   id="g16">
		<path
   inkscape:connector-curvature="0"
   d="m 237.54,223.671 c 0,-14.144 11.962,-17.113 21.997,-17.113 14.694,0 19.11,6.399 23.576,6.399 4.862,0 7.304,-5.546 7.304,-8.651 0,-7.889 -14.979,-11.697 -26.144,-12.516 v -8.88 c 0,-4.561 -3.711,-8.272 -8.272,-8.272 -4.561,0 -8.272,3.711 -8.272,8.272 v 9.928 c -16.878,3.617 -26.144,14.869 -26.144,31.843 0,22.706 16.21,28.797 30.516,34.171 13.625,5.12 25.391,9.541 25.391,26.115 0,13.62 -7.839,20.819 -22.67,20.819 -13.404,0 -18.736,-5.75 -22.633,-9.951 -2.087,-2.25 -3.735,-4.026 -6.162,-4.026 -4.025,0 -7.474,4.757 -7.474,8.651 0,6.92 11.05,17.624 29.176,20.088 v 8.542 c 0,4.561 3.711,8.272 8.272,8.272 4.561,0 8.272,-3.711 8.272,-8.272 v -8.707 c 18.572,-3.03 29.176,-16.215 29.176,-36.425 -0.003,-47.614 -55.909,-32.105 -55.909,-60.287 z"
   id="path14" />
	</g>
</g><g
       id="g24">
	<g
   id="g22">
		<path
   inkscape:connector-curvature="0"
   d="M 328.135,41.674 C 320.945,36.756 277.7,7.176 270.499,2.251 c -8.503,-5.81 -20.065,0.309 -20.065,10.59 v 16.348 c -121.29,4.92 -218.065,104.666 -218.065,227.286 0,74.042 36.224,143.686 96.899,186.298 15.51,10.892 36.931,-1.021 36.427,-19.671 -0.2,-7.395 -3.8,-14.085 -9.877,-18.358 -48.26,-33.931 -77.071,-89.359 -77.071,-148.27 0,-96.339 76.342,-175.921 171.687,-180.851 v 16.058 c 0,7.077 5.762,12.836 12.844,12.836 2.575,0 5.074,-0.778 7.225,-2.249 l 57.631,-39.42 c 3.498,-2.392 5.585,-6.35 5.585,-10.588 0.001,-4.237 -2.087,-8.195 -5.584,-10.586 z M 250.424,60.57 c -103.817,4.888 -186.696,90.5 -186.696,195.905 0,63.794 31.198,123.815 83.453,160.556 2.155,1.515 3.43,3.876 3.501,6.477 0.178,6.564 -7.488,10.691 -12.781,6.973 C 81.225,390.68 47.389,325.63 47.389,256.475 47.389,142.853 137.791,49.179 250.424,44.209 Z m 15.03,26.954 V 16.996 l 51.555,35.264 z"
   id="path20" />
	</g>
</g><g
       id="g30">
	<g
   id="g28">
		<path
   inkscape:connector-curvature="0"
   d="m 382.73,69.227 c -3.855,-2.708 -8.393,-4.138 -13.123,-4.138 -8.417,0 -13.519,4.58 -14.545,5.144 -12.142,9.556 -11.573,28.1 1.118,37.023 48.26,33.931 77.072,89.359 77.072,148.27 0,96.339 -76.342,175.921 -171.687,180.851 v -16.058 c 0,-7.077 -5.762,-12.836 -12.844,-12.836 -6.915,0 -4.924,1.572 -64.856,41.669 -7.46,5.102 -7.425,16.098 0,21.175 7.19,4.918 50.435,34.498 57.636,39.423 8.503,5.81 20.065,-0.309 20.065,-10.59 v -16.35 c 53.153,-2.187 103.799,-22.867 143.328,-58.707 3.073,-2.786 3.305,-7.535 0.52,-10.608 -2.786,-3.073 -7.534,-3.305 -10.608,-0.52 -36.76,33.33 -83.816,52.635 -133.229,54.815 v -16.361 c 49.173,-2.315 95.062,-22.7 129.907,-57.875 86.372,-87.19 71.624,-229.479 -26.665,-298.586 -2.227,-1.565 -3.505,-4.006 -3.505,-6.698 0,-4.35 3.202,-6.316 3.267,-6.416 2.703,-2.129 6.59,-2.392 9.516,-0.334 102.179,71.758 120.689,215.474 40.813,310.573 -2.667,3.176 -2.255,7.913 0.92,10.581 3.175,2.667 7.912,2.255 10.581,-0.92 34.318,-40.859 53.217,-92.79 53.217,-146.226 C 479.629,181.484 443.405,111.84 382.73,69.227 Z M 246.544,495.004 194.989,459.74 246.544,424.476 Z"
   id="path26" />
	</g>
</g></g><g
     id="flowRoot69"
     style="font-style:normal;font-weight:normal;font-size:40px;line-height:1.25;font-family:sans-serif;letter-spacing:0px;word-spacing:0px;fill:#000000;fill-opacity:1;stroke:none"
     transform="matrix(5.7360806,0,0,5.7360806,-2559.3362,-93.44753)"
     aria-label="cacao
accounting"><path
       id="path96"
       style=""
       d="m 551.27148,41.633838 q -1.83593,0.878906 -3.49609,1.367187 -1.64062,0.488281 -3.49609,0.488281 -2.36328,0 -4.33594,-0.683593 -1.97266,-0.703125 -3.37891,-2.109375 -1.42578,-1.40625 -2.20703,-3.554688 -0.78125,-2.148437 -0.78125,-5.019531 0,-5.351563 2.92969,-8.398438 2.94922,-3.046875 7.77344,-3.046875 1.875,0 3.67187,0.527344 1.81641,0.527344 3.32031,1.289063 v 4.082031 h -0.19531 q -1.67969,-1.308594 -3.47656,-2.011719 -1.77734,-0.703125 -3.47656,-0.703125 -3.125,0 -4.94141,2.109375 -1.79687,2.089844 -1.79687,6.152344 0,3.945312 1.75781,6.074219 1.77734,2.109375 4.98047,2.109375 1.11328,0 2.26562,-0.292969 1.15235,-0.292969 2.07031,-0.761719 0.80079,-0.410156 1.50391,-0.859375 0.70313,-0.46875 1.11328,-0.800781 h 0.19531 z" /><path
       id="path98"
       style=""
       d="m 572.95117,43.001025 h -3.65234 v -2.324219 q -0.48828,0.332032 -1.32813,0.9375 -0.82031,0.585938 -1.60156,0.9375 -0.91797,0.449219 -2.10937,0.742188 -1.19141,0.3125 -2.79297,0.3125 -2.94922,0 -5,-1.953125 -2.05078,-1.953125 -2.05078,-4.980469 0,-2.480469 1.05468,-4.003906 1.07422,-1.542969 3.04688,-2.421875 1.99219,-0.878906 4.78515,-1.191406 2.79297,-0.3125 5.9961,-0.46875 v -0.566407 q 0,-1.25 -0.44922,-2.070312 -0.42969,-0.820313 -1.25,-1.289063 -0.78125,-0.449218 -1.875,-0.605468 -1.09375,-0.15625 -2.28516,-0.15625 -1.44531,0 -3.22265,0.390625 -1.77735,0.371093 -3.67188,1.09375 h -0.19531 v -3.730469 q 1.07422,-0.292969 3.10547,-0.644531 2.03125,-0.351563 4.0039,-0.351563 2.30469,0 4.00391,0.390625 1.71875,0.371094 2.96875,1.289063 1.23047,0.898437 1.875,2.324218 0.64453,1.425782 0.64453,3.535157 z m -3.65234,-5.371094 v -6.074218 q -1.67969,0.09766 -3.96485,0.292968 -2.26562,0.195313 -3.59375,0.566407 -1.58203,0.449218 -2.55859,1.40625 -0.97656,0.9375 -0.97656,2.597656 0,1.875 1.13281,2.832031 1.13281,0.9375 3.45703,0.9375 1.9336,0 3.53516,-0.742187 1.60156,-0.761719 2.96875,-1.816407 z" /><path
       id="path100"
       style=""
       d="m 596.19336,41.633838 q -1.83594,0.878906 -3.49609,1.367187 -1.64063,0.488281 -3.4961,0.488281 -2.36328,0 -4.33594,-0.683593 -1.97265,-0.703125 -3.3789,-2.109375 -1.42578,-1.40625 -2.20703,-3.554688 -0.78125,-2.148437 -0.78125,-5.019531 0,-5.351563 2.92968,-8.398438 2.94922,-3.046875 7.77344,-3.046875 1.875,0 3.67188,0.527344 1.8164,0.527344 3.32031,1.289063 v 4.082031 h -0.19531 q -1.67969,-1.308594 -3.47657,-2.011719 -1.77734,-0.703125 -3.47656,-0.703125 -3.125,0 -4.9414,2.109375 -1.79688,2.089844 -1.79688,6.152344 0,3.945312 1.75781,6.074219 1.77735,2.109375 4.98047,2.109375 1.11328,0 2.26563,-0.292969 1.15234,-0.292969 2.07031,-0.761719 0.80078,-0.410156 1.50391,-0.859375 0.70312,-0.46875 1.11328,-0.800781 h 0.19531 z" /><path
       id="path102"
       style=""
       d="m 617.87305,43.001025 h -3.65235 v -2.324219 q -0.48828,0.332032 -1.32812,0.9375 -0.82031,0.585938 -1.60156,0.9375 -0.91797,0.449219 -2.10938,0.742188 -1.19141,0.3125 -2.79297,0.3125 -2.94922,0 -5,-1.953125 -2.05078,-1.953125 -2.05078,-4.980469 0,-2.480469 1.05469,-4.003906 1.07422,-1.542969 3.04687,-2.421875 1.99219,-0.878906 4.78516,-1.191406 2.79297,-0.3125 5.99609,-0.46875 v -0.566407 q 0,-1.25 -0.44922,-2.070312 -0.42968,-0.820313 -1.25,-1.289063 -0.78125,-0.449218 -1.875,-0.605468 -1.09375,-0.15625 -2.28515,-0.15625 -1.44531,0 -3.22266,0.390625 -1.77734,0.371093 -3.67187,1.09375 h -0.19532 v -3.730469 q 1.07422,-0.292969 3.10547,-0.644531 2.03125,-0.351563 4.00391,-0.351563 2.30469,0 4.00391,0.390625 1.71875,0.371094 2.96875,1.289063 1.23046,0.898437 1.875,2.324218 0.64453,1.425782 0.64453,3.535157 z m -3.65235,-5.371094 v -6.074218 q -1.67968,0.09766 -3.96484,0.292968 -2.26563,0.195313 -3.59375,0.566407 -1.58203,0.449218 -2.55859,1.40625 -0.97657,0.9375 -0.97657,2.597656 0,1.875 1.13282,2.832031 1.13281,0.9375 3.45703,0.9375 1.93359,0 3.53515,-0.742187 1.60157,-0.761719 2.96875,-1.816407 z" /><path
       id="path104"
       style=""
       d="m 643.57617,32.102588 q 0,5.332031 -2.73437,8.417968 -2.73438,3.085938 -7.32422,3.085938 -4.62891,0 -7.36328,-3.085938 -2.71485,-3.085937 -2.71485,-8.417968 0,-5.332032 2.71485,-8.417969 2.73437,-3.105469 7.36328,-3.105469 4.58984,0 7.32422,3.105469 2.73437,3.085937 2.73437,8.417969 z m -3.78906,0 q 0,-4.238282 -1.66016,-6.289063 -1.66015,-2.070312 -4.60937,-2.070312 -2.98828,0 -4.64844,2.070312 -1.64062,2.050781 -1.64062,6.289063 0,4.101562 1.66015,6.230468 1.66016,2.109375 4.62891,2.109375 2.92969,0 4.58984,-2.089843 1.67969,-2.109375 1.67969,-6.25 z" /><path
       id="path106"
       style=""
       d="m 552.0918,93.001025 h -3.65235 v -2.324219 q -0.48828,0.332032 -1.32812,0.9375 -0.82031,0.585938 -1.60156,0.9375 -0.91797,0.449219 -2.10938,0.742188 -1.19141,0.3125 -2.79297,0.3125 -2.94922,0 -5,-1.953125 -2.05078,-1.953125 -2.05078,-4.980469 0,-2.480469 1.05469,-4.003906 1.07422,-1.542969 3.04687,-2.421875 1.99219,-0.878906 4.78516,-1.191406 2.79297,-0.3125 5.99609,-0.46875 v -0.566407 q 0,-1.25 -0.44922,-2.070312 -0.42968,-0.820313 -1.25,-1.289063 -0.78125,-0.449218 -1.875,-0.605468 -1.09375,-0.15625 -2.28515,-0.15625 -1.44531,0 -3.22266,0.390625 -1.77734,0.371093 -3.67187,1.09375 h -0.19532 v -3.730469 q 1.07422,-0.292969 3.10547,-0.644531 2.03125,-0.351563 4.00391,-0.351563 2.30469,0 4.00391,0.390625 1.71875,0.371094 2.96875,1.289063 1.23046,0.898437 1.875,2.324218 0.64453,1.425782 0.64453,3.535157 z m -3.65235,-5.371094 v -6.074218 q -1.67968,0.09766 -3.96484,0.292968 -2.26563,0.195313 -3.59375,0.566407 -1.58203,0.449218 -2.55859,1.40625 -0.97657,0.9375 -0.97657,2.597656 0,1.875 1.13282,2.832031 1.13281,0.9375 3.45703,0.9375 1.93359,0 3.53515,-0.742187 1.60157,-0.761719 2.96875,-1.816407 z" /><path
       id="path108"
       style=""
       d="m 575.33398,91.633838 q -1.83593,0.878906 -3.49609,1.367187 -1.64062,0.488281 -3.49609,0.488281 -2.36328,0 -4.33594,-0.683593 -1.97266,-0.703125 -3.37891,-2.109375 -1.42578,-1.40625 -2.20703,-3.554688 -0.78125,-2.148437 -0.78125,-5.019531 0,-5.351563 2.92969,-8.398438 2.94922,-3.046875 7.77344,-3.046875 1.875,0 3.67187,0.527344 1.81641,0.527344 3.32031,1.289063 v 4.082031 h -0.19531 q -1.67969,-1.308594 -3.47656,-2.011719 -1.77734,-0.703125 -3.47656,-0.703125 -3.125,0 -4.94141,2.109375 -1.79687,2.089844 -1.79687,6.152344 0,3.945312 1.75781,6.074219 1.77734,2.109375 4.98047,2.109375 1.11328,0 2.26562,-0.292969 1.15235,-0.292969 2.07031,-0.761719 0.80079,-0.410156 1.50391,-0.859375 0.70313,-0.46875 1.11328,-0.800781 h 0.19531 z" /><path
       id="path110"
       style=""
       d="m 596.19336,91.633838 q -1.83594,0.878906 -3.49609,1.367187 -1.64063,0.488281 -3.4961,0.488281 -2.36328,0 -4.33594,-0.683593 -1.97265,-0.703125 -3.3789,-2.109375 -1.42578,-1.40625 -2.20703,-3.554688 -0.78125,-2.148437 -0.78125,-5.019531 0,-5.351563 2.92968,-8.398438 2.94922,-3.046875 7.77344,-3.046875 1.875,0 3.67188,0.527344 1.8164,0.527344 3.32031,1.289063 v 4.082031 h -0.19531 q -1.67969,-1.308594 -3.47657,-2.011719 -1.77734,-0.703125 -3.47656,-0.703125 -3.125,0 -4.9414,2.109375 -1.79688,2.089844 -1.79688,6.152344 0,3.945312 1.75781,6.074219 1.77735,2.109375 4.98047,2.109375 1.11328,0 2.26563,-0.292969 1.15234,-0.292969 2.07031,-0.761719 0.80078,-0.410156 1.50391,-0.859375 0.70312,-0.46875 1.11328,-0.800781 h 0.19531 z" /><path
       id="path112"
       style=""
       d="m 619.51367,82.102588 q 0,5.332031 -2.73437,8.417968 -2.73438,3.085938 -7.32422,3.085938 -4.62891,0 -7.36328,-3.085938 -2.71485,-3.085937 -2.71485,-8.417968 0,-5.332032 2.71485,-8.417969 2.73437,-3.105469 7.36328,-3.105469 4.58984,0 7.32422,3.105469 2.73437,3.085937 2.73437,8.417969 z m -3.78906,0 q 0,-4.238282 -1.66016,-6.289063 -1.66015,-2.070312 -4.60937,-2.070312 -2.98828,0 -4.64844,2.070312 -1.64062,2.050781 -1.64062,6.289063 0,4.101562 1.66015,6.230468 1.66016,2.109375 4.62891,2.109375 2.92969,0 4.58984,-2.089843 1.67969,-2.109375 1.67969,-6.25 z" /><path
       id="path114"
       style=""
       d="m 643.30273,93.001025 h -3.67187 V 90.57915 q -1.85547,1.464844 -3.55469,2.246094 -1.69922,0.78125 -3.75,0.78125 -3.4375,0 -5.35156,-2.089844 -1.91406,-2.109375 -1.91406,-6.171875 V 71.184619 h 3.67187 v 12.421875 q 0,1.660156 0.15625,2.851562 0.15625,1.171875 0.66406,2.011719 0.52735,0.859375 1.36719,1.25 0.83985,0.390625 2.44141,0.390625 1.42578,0 3.10547,-0.742187 1.69922,-0.742188 3.16406,-1.894532 V 71.184619 h 3.67187 z" /><path
       id="path116"
       style=""
       d="m 668.77148,93.001025 h -3.67187 V 80.57915 q 0,-1.503906 -0.17578,-2.8125 -0.17578,-1.328125 -0.64453,-2.070312 -0.48828,-0.820313 -1.40625,-1.210938 -0.91797,-0.410156 -2.38282,-0.410156 -1.5039,0 -3.14453,0.742187 -1.64062,0.742188 -3.14453,1.894532 V 93.001025 H 650.5293 V 71.184619 h 3.67187 v 2.421875 q 1.71875,-1.425781 3.55469,-2.226563 1.83594,-0.800781 3.76953,-0.800781 3.53516,0 5.39063,2.128906 1.85546,2.128907 1.85546,6.132813 z" /><path
       id="path118"
       style=""
       d="m 687.16992,92.805713 q -1.03515,0.273437 -2.26562,0.449218 -1.21094,0.175782 -2.16797,0.175782 -3.33985,0 -5.07813,-1.796875 -1.73828,-1.796875 -1.73828,-5.761719 V 74.270556 h -2.48047 v -3.085937 h 2.48047 v -6.269531 h 3.67188 v 6.269531 h 7.57812 v 3.085937 h -7.57812 v 9.941407 q 0,1.71875 0.0781,2.695312 0.0781,0.957031 0.54688,1.796875 0.42968,0.78125 1.17187,1.152344 0.76172,0.351562 2.30469,0.351562 0.89844,0 1.875,-0.253906 0.97656,-0.273437 1.40625,-0.449219 h 0.19531 z" /><path
       id="path120"
       style=""
       d="m 695.56836,67.532275 h -4.14063 v -3.808594 h 4.14063 z m -0.23438,25.46875 h -3.67187 V 71.184619 h 3.67187 z" /><path
       id="path122"
       style=""
       d="m 720.88086,93.001025 h -3.67188 V 80.57915 q 0,-1.503906 -0.17578,-2.8125 -0.17578,-1.328125 -0.64453,-2.070312 -0.48828,-0.820313 -1.40625,-1.210938 -0.91797,-0.410156 -2.38281,-0.410156 -1.50391,0 -3.14453,0.742187 -1.64063,0.742188 -3.14453,1.894532 v 16.289062 h -3.67188 V 71.184619 h 3.67188 v 2.421875 q 1.71875,-1.425781 3.55468,-2.226563 1.83594,-0.800781 3.76954,-0.800781 3.53515,0 5.39062,2.128906 1.85547,2.128907 1.85547,6.132813 z" /><path
       id="path124"
       style=""
       d="m 745.64648,90.520556 q 0,5.546875 -2.51953,8.144532 -2.51953,2.597652 -7.7539,2.597652 -1.73828,0 -3.39844,-0.2539 -1.64063,-0.23438 -3.24219,-0.6836 v -3.749996 h 0.19531 q 0.89844,0.351562 2.85157,0.859375 1.95312,0.527344 3.90625,0.527344 1.875,0 3.10547,-0.449219 1.23046,-0.449219 1.91406,-1.25 0.68359,-0.761719 0.97656,-1.835938 0.29297,-1.074218 0.29297,-2.402343 v -1.992188 q -1.66016,1.328125 -3.18359,1.992188 -1.50391,0.644531 -3.84766,0.644531 -3.90625,0 -6.21094,-2.8125 -2.28515,-2.832031 -2.28515,-7.96875 0,-2.8125 0.78125,-4.84375 0.80078,-2.050781 2.16796,-3.535156 1.26954,-1.386719 3.08594,-2.148438 1.81641,-0.78125 3.61328,-0.78125 1.89453,0 3.16407,0.390625 1.28906,0.371094 2.71484,1.152344 l 0.23437,-0.9375 h 3.4375 z m -3.67187,-3.515625 V 75.1104 q -1.46484,-0.664062 -2.73438,-0.9375 -1.25,-0.292969 -2.5,-0.292969 -3.02734,0 -4.76562,2.03125 -1.73828,2.03125 -1.73828,5.898438 0,3.671875 1.28906,5.566406 1.28906,1.894531 4.27734,1.894531 1.60157,0 3.20313,-0.605468 1.62109,-0.625 2.96875,-1.660157 z" /></g></g></svg>