<?xml version="1.0" encoding="iso-8859-1"?>
<!-- Generator: Adobe Illustrator 19.0.0, SVG Export Plug-In . SVG Version: 6.00 Build 0)  -->
<svg version="1.1" id="Capa_1" xmlns="http://www.w3.org/2000/svg" xmlns:xlink="http://www.w3.org/1999/xlink" x="0px" y="0px"
	 viewBox="0 0 512 512" style="enable-background:new 0 0 512 512;" xml:space="preserve">
<g>
	<g>
		<path d="M273.237,112.923c-4.122-0.493-7.856,2.446-8.349,6.565c-0.493,4.118,2.446,7.856,6.565,8.349
			c102.673,12.287,151.443,137.234,79.637,215.458c-48.169,52.47-129.842,56.029-182.384,7.797
			c-26.558-24.381-41.789-59.053-41.789-95.126c0-66.208,50.213-121.809,116.199-128.402c4.127-0.413,7.138-4.092,6.726-8.219
			c-0.413-4.129-4.098-7.145-8.219-6.729c-73.556,7.352-129.726,69.311-129.726,143.348c0,78.641,63.642,144.139,144.066,144.139
			c40.268,0,78.974-17.004,106.19-46.652C442.042,266.423,388.344,126.699,273.237,112.923z"/>
	</g>
</g>
<g>
	<g>
		<path d="M324.011,169.896c-66.848-52.741-164.822-12.305-176.662,70.61c-0.586,4.106,2.267,7.909,6.373,8.496
			c4.098,0.581,7.909-2.267,8.496-6.373c6.559-45.926,46.33-81.353,93.874-81.353c53.693,0,94.631,43.457,94.631,94.818
			c0,53.693-43.457,94.631-94.818,94.631c-47.005,0.001-86.338-33.849-93.52-80.368c-0.632-4.098-4.466-6.91-8.567-6.276
			c-4.099,0.633-6.909,4.468-6.276,8.567c4.288,27.791,19.035,52.566,40.444,69.458c48.466,38.239,117.289,28.587,154.117-18.093
			C380.343,275.546,370.691,206.724,324.011,169.896z"/>
	</g>
</g>
<g>
	<g>
		<path d="M237.54,223.671c0-14.144,11.962-17.113,21.997-17.113c14.694,0,19.11,6.399,23.576,6.399
			c4.862,0,7.304-5.546,7.304-8.651c0-7.889-14.979-11.697-26.144-12.516v-8.88c0-4.561-3.711-8.272-8.272-8.272
			s-8.272,3.711-8.272,8.272v9.928c-16.878,3.617-26.144,14.869-26.144,31.843c0,22.706,16.21,28.797,30.516,34.171
			c13.625,5.12,25.391,9.541,25.391,26.115c0,13.62-7.839,20.819-22.67,20.819c-13.404,0-18.736-5.75-22.633-9.951
			c-2.087-2.25-3.735-4.026-6.162-4.026c-4.025,0-7.474,4.757-7.474,8.651c0,6.92,11.05,17.624,29.176,20.088v8.542
			c0,4.561,3.711,8.272,8.272,8.272c4.561,0,8.272-3.711,8.272-8.272v-8.707c18.572-3.03,29.176-16.215,29.176-36.425
			C293.446,236.344,237.54,251.853,237.54,223.671z"/>
	</g>
</g>
<g>
	<g>
		<path d="M328.135,41.674c-7.19-4.918-50.435-34.498-57.636-39.423c-8.503-5.81-20.065,0.309-20.065,10.59v16.348
			C129.144,34.109,32.369,133.855,32.369,256.475c0,74.042,36.224,143.686,96.899,186.298c15.51,10.892,36.931-1.021,36.427-19.671
			c-0.2-7.395-3.8-14.085-9.877-18.358c-48.26-33.931-77.071-89.359-77.071-148.27c0-96.339,76.342-175.921,171.687-180.851v16.058
			c0,7.077,5.762,12.836,12.844,12.836c2.575,0,5.074-0.778,7.225-2.249l57.631-39.42c3.498-2.392,5.585-6.35,5.585-10.588
			C333.72,48.023,331.632,44.065,328.135,41.674z M250.424,60.57c-103.817,4.888-186.696,90.5-186.696,195.905
			c0,63.794,31.198,123.815,83.453,160.556c2.155,1.515,3.43,3.876,3.501,6.477c0.178,6.564-7.488,10.691-12.781,6.973
			C81.225,390.68,47.389,325.63,47.389,256.475c0-113.622,90.402-207.296,203.035-212.266V60.57z M265.454,87.524V16.996
			l51.555,35.264L265.454,87.524z"/>
	</g>
</g>
<g>
	<g>
		<path d="M382.73,69.227c-3.855-2.708-8.393-4.138-13.123-4.138c-8.417,0-13.519,4.58-14.545,5.144
			c-12.142,9.556-11.573,28.1,1.118,37.023c48.26,33.931,77.072,89.359,77.072,148.27c0,96.339-76.342,175.921-171.687,180.851
			v-16.058c0-7.077-5.762-12.836-12.844-12.836c-6.915,0-4.924,1.572-64.856,41.669c-7.46,5.102-7.425,16.098,0,21.175
			c7.19,4.918,50.435,34.498,57.636,39.423c8.503,5.81,20.065-0.309,20.065-10.59v-16.35
			c53.153-2.187,103.799-22.867,143.328-58.707c3.073-2.786,3.305-7.535,0.52-10.608c-2.786-3.073-7.534-3.305-10.608-0.52
			c-36.76,33.33-83.816,52.635-133.229,54.815v-16.361c49.173-2.315,95.062-22.7,129.907-57.875
			c86.372-87.19,71.624-229.479-26.665-298.586c-2.227-1.565-3.505-4.006-3.505-6.698c0-4.35,3.202-6.316,3.267-6.416
			c2.703-2.129,6.59-2.392,9.516-0.334c102.179,71.758,120.689,215.474,40.813,310.573c-2.667,3.176-2.255,7.913,0.92,10.581
			c3.175,2.667,7.912,2.255,10.581-0.92c34.318-40.859,53.217-92.79,53.217-146.226C479.629,181.484,443.405,111.84,382.73,69.227z
			 M246.544,495.004l-51.555-35.264l51.555-35.264V495.004z"/>
	</g>
</g>
<g>
</g>
<g>
</g>
<g>
</g>
<g>
</g>
<g>
</g>
<g>
</g>
<g>
</g>
<g>
</g>
<g>
</g>
<g>
</g>
<g>
</g>
<g>
</g>
<g>
</g>
<g>
</g>
<g>
</g>
</svg>
